<svg id="レイヤー_1" data-name="レイヤー 1" xmlns="http://www.w3.org/2000/svg" xmlns:xlink="http://www.w3.org/1999/xlink" viewBox="0 0 951.16 278.09"><defs><style>.cls-1{fill:none;}.cls-2{clip-path:url(#clip-path);}.cls-10,.cls-11,.cls-3,.cls-4,.cls-5,.cls-6,.cls-8,.cls-9{isolation:isolate;}.cls-4,.cls-5,.cls-6,.cls-8,.cls-9{font-size:94.62px;font-family:Montserrat-SemiBold, Montserrat;font-weight:600;}.cls-10,.cls-11,.cls-12,.cls-4,.cls-5,.cls-6,.cls-8,.cls-9{fill:#118ab2;}.cls-4{letter-spacing:-0.05em;}.cls-6{letter-spacing:-0.01em;}.cls-7,.cls-9{letter-spacing:0em;}.cls-8{letter-spacing:-0.02em;}.cls-10,.cls-11{font-size:64.62px;font-family:Montserrat-Medium, Montserrat;font-weight:500;}.cls-11{letter-spacing:-0.01em;}</style><clipPath id="clip-path" transform="translate(-47.26 -72.96)"><rect class="cls-1" x="-66.07" y="21" width="1125.07" height="377.94"/></clipPath></defs><g id="グループ_7" data-name="グループ 7"><g class="cls-2"><g id="グループ_6" data-name="グループ 6"><g id="Territorium" class="cls-3"><text class="cls-4" transform="translate(363.74 83.46) scale(1.01 1)">T</text><text class="cls-5" transform="translate(416.23 83.46) scale(1.01 1)">e</text><text class="cls-6" transform="translate(475.82 83.46) scale(1.01 1)">r<tspan class="cls-7" x="38.89" y="0">r</tspan></text><text class="cls-5" transform="translate(555.04 83.46) scale(1.01 1)">i</text><text class="cls-8" transform="translate(582.73 83.46) scale(1.01 1)">t</text><text class="cls-5" transform="translate(621.62 83.46) scale(1.01 1)">o</text><text class="cls-9" transform="translate(683.4 83.46) scale(1.01 1)">r</text><text class="cls-5" transform="translate(723.25 83.46) scale(1.01 1)">ium</text></g><g id="Responsive_" data-name="Responsive " class="cls-3"><text class="cls-10" transform="translate(438.15 176.65) scale(1.01 1)">Responsi</text><text class="cls-11" transform="translate(740.25 176.65) scale(1.01 1)">v</text><text class="cls-10" transform="translate(775.91 176.65) scale(1.01 1)">e &amp;</text></g><g id="Minimal_Redesign" data-name="Minimal Redesign" class="cls-3"><text class="cls-10" transform="translate(350.54 261.35) scale(1.01 1)">Minimal Redesign</text></g></g></g></g><path class="cls-12" d="M215.08,103.35A30.4,30.4,0,1,1,184.69,73,30.39,30.39,0,0,1,215.08,103.35Z" transform="translate(-47.26 -72.96)"/><path class="cls-12" d="M88.64,152.71a4.07,4.07,0,0,0-3-2.71,17.26,17.26,0,0,0-5.36-.72c-4.56,0-6.58.83-6.58,2.27,0,6,36.36,2.27,36.36,16.78,0,9.25-12.21,13.73-29.6,13.73-16.69,0-27.58-6.14-28-13.34H72.3a5.21,5.21,0,0,0,3.43,3.16,16.84,16.84,0,0,0,5.88,1c5.18,0,8.61-1.05,8.61-2.93,0-6-36.36-1.89-36.36-17.12,0-8.47,11.59-12.73,27.4-12.73,17.57,0,25.56,5.64,27.05,12.62Z" transform="translate(-47.26 -72.96)"/><path class="cls-12" d="M119.64,181V141.14H171.2v9.3H140.37v5.71h26.09v9.3H140.37v6.26h32.06V181Z" transform="translate(-47.26 -72.96)"/><path class="cls-12" d="M224.43,162.9l-.79-9.08V141.14h19.85V181H224.08L201.5,159.3l.8,9.09V181H182.44V141.14h19.42Z" transform="translate(-47.26 -72.96)"/><path class="cls-12" d="M250.52,181l22.66-39.87h21.08L316.92,181H296.28l-2.46-5.26H273.18L270.81,181Zm33-27.85-6.41,14.28h13.09Z" transform="translate(-47.26 -72.96)"/><polygon class="cls-12" points="274.27 116.74 147.54 116.74 221.31 247.75 237.57 233.58 178.56 135.03 274.86 134.79 274.27 116.74"/><polygon class="cls-12" points="0.59 116.74 127.33 116.74 53.55 247.75 37.29 233.58 96.3 135.03 0 134.79 0.59 116.74"/><polygon class="cls-12" points="67.67 258.26 136.85 138.91 207.98 257.09 189.2 265.57 138.42 174.8 84.37 266.65 67.67 258.26"/></svg>